<?xml version="1.0" encoding="UTF-8"?>
<svg xmlns="http://www.w3.org/2000/svg" version="1.1" viewBox="0 0 1284.93 622.21">
  <defs>
    <style>
      .cls-1 {
        fill: #112d69;
      }

      .cls-2 {
        fill: #009ff2;
      }
    </style>
  </defs>
  <!-- Generator: Adobe Illustrator 28.6.0, SVG Export Plug-In . SVG Version: 1.2.0 Build 709)  -->
  <g>
    <g id="Layer_1">
      <g id="Layer_1-2" data-name="Layer_1">
        <g>
          <path class="cls-2" d="M476.19,324.83c-.73-.72-1.77-1.08-3.09-1.08h-38.71c-1.81,0-2.65-.88-2.65-2.77v-10.01c0-1.77.82-2.59,2.57-2.59h30.43c2.75,0,4.2-1.51,4.2-4.36v-2.32c0-2.85-1.48-4.36-4.28-4.36h-30.35c-1.75,0-2.57-.85-2.57-2.68v-9.08c0-1.83.84-2.68,2.65-2.68h38.07c1.32,0,2.36-.38,3.1-1.13.73-.75,1.1-1.84,1.1-3.23v-2.59c0-2.85-1.48-4.36-4.28-4.36h-42.69c-3.32,0-5.92.83-7.74,2.46-1.83,1.64-2.75,4.31-2.75,7.93v43.01c0,3.62.93,6.28,2.75,7.93,1.81,1.63,4.45,2.46,7.82,2.46h43.33c2.75,0,4.2-1.51,4.2-4.36v-2.87c0-1.46-.37-2.56-1.11-3.28v-.04Z"/>
          <path class="cls-2" d="M533.48,300.33c-.57-2.85-1.74-5.09-3.46-6.65-1.72-1.55-4.19-2.6-7.36-3.11-3.11-.49-7.27-.75-12.36-.75h-15.93c-3.87,0-6.59.92-8.09,2.73-1.48,1.79-2.24,4.21-2.24,7.19v30.68c0,1.5.33,2.7.99,3.56.68.9,1.71,1.35,3.05,1.35h3.66c1.34,0,2.36-.46,3.05-1.35.66-.87.99-2.07.99-3.56v-26.42c0-2.87,1.36-4.26,4.16-4.26h9.16c3.1,0,5.58.14,7.39.41,1.74.26,3.07.89,3.96,1.88.9.99,1.48,2.48,1.74,4.43.26,2.02.4,4.84.4,8.39v15.57c0,1.5.33,2.7.99,3.56.68.9,1.71,1.35,3.05,1.35h3.74c1.34,0,2.36-.46,3.01-1.36.63-.87.95-2.06.95-3.56v-19c0-4.58-.28-8.32-.84-11.1v.02Z"/>
          <path class="cls-1" d="M618.67,324.47l-4.14-2.87c-.32-.23-.48-.5-.48-.81,0-.12.03-.44.23-1.2.16-.64.33-1.59.49-2.83s.32-2.87.48-4.88c.16-2,.24-4.58.24-7.68v-1.48c0-4.57-.16-8.56-.48-11.85-.32-3.32-.93-6.2-1.81-8.53-.9-2.36-2.17-4.31-3.8-5.8-1.63-1.48-3.75-2.63-6.31-3.42-2.54-.78-5.68-1.31-9.32-1.59-3.62-.28-7.98-.42-12.97-.42h-2.39c-4.99,0-9.35.14-12.97.42-3.65.28-6.78.81-9.32,1.59-2.56.79-4.69,1.94-6.32,3.42-1.63,1.49-2.91,3.44-3.8,5.8-.88,2.34-1.49,5.21-1.81,8.53-.32,3.31-.48,7.3-.48,11.85v1.48c0,4.56.16,8.54.48,11.85.32,3.32.93,6.19,1.81,8.53.89,2.36,2.17,4.3,3.81,5.76,1.63,1.45,3.75,2.6,6.31,3.41,2.54.81,5.67,1.36,9.32,1.64,3.61.28,7.98.42,12.97.42h2.39c3.86,0,7.26-.08,10.09-.23,2.84-.15,5.34-.42,7.45-.79,2.12-.38,3.99-.87,5.56-1.46,1.59-.6,3.06-1.34,4.33-2.22.6-.38.8-.4.83-.4.08,0,.31.04.8.47l3.51,2.88c.86.67,1.69,1.01,2.46,1.01,1.1,0,2.06-.72,2.88-2.14l1.28-2.24c.56-1.1.84-2.06.84-2.86,0-1.17-.72-2.3-2.15-3.37h-.01ZM591.26,309.37l-1.27,2.13c-.62,1.04-.93,2.04-.93,2.97,0,1.18.75,2.31,2.23,3.37l5.87,3.59c.24.24.36.46.36.66,0,.14-.05.33-.41.49-1.08.48-2.88.9-5.36,1.27s-6.12.55-10.82.55h-2.23c-5.22,0-9.39-.22-12.37-.65-2.93-.42-5.17-1.33-6.65-2.73-1.47-1.39-2.42-3.45-2.83-6.13-.42-2.74-.63-6.5-.63-11.16v-.65c0-4.66.21-8.43.63-11.21.41-2.71,1.38-4.79,2.87-6.18,1.5-1.39,3.75-2.31,6.69-2.73,3-.43,7.16-.65,12.37-.65h1.59c5.21,0,9.39.22,12.41.65,2.96.42,5.24,1.34,6.77,2.73,1.52,1.38,2.5,3.46,2.91,6.18.42,2.78.63,6.55.63,11.21v.65c0,1.85-.03,3.48-.08,4.9-.05,1.39-.21,2.57-.47,3.54-.09.36-.21.36-.27.36-.16,0-.46-.08-.97-.48l-4.8-3.72c-.86-.67-1.66-1.01-2.38-1.01-1.09,0-2.06.69-2.87,2.04h.01Z"/>
          <path class="cls-1" d="M674.86,291.46c-.68-.9-1.71-1.35-3.05-1.35h-3.66c-1.34,0-2.36.46-3.05,1.35-.66.87-.99,2.07-.99,3.56v26.32c0,2.87-1.36,4.26-4.16,4.26h-9.88c-2.94,0-5.29-.14-6.99-.41-1.63-.26-2.86-.89-3.67-1.86-.82-.99-1.37-2.48-1.63-4.44-.26-2.01-.39-4.84-.39-8.39v-15.48c0-1.49-.33-2.69-.99-3.56-.69-.9-1.71-1.35-3.05-1.35h-3.74c-1.34,0-2.36.46-3.01,1.36-.63.87-.95,2.06-.95,3.56v19c0,4.64.27,8.41.81,11.19.54,2.85,1.68,5.07,3.38,6.61,1.7,1.53,4.09,2.56,7.12,3.06,2.98.5,7,.75,11.93.75h16.64c3.87,0,6.59-.92,8.1-2.73,1.48-1.79,2.24-4.21,2.24-7.19v-30.68c0-1.5-.33-2.7-.99-3.56l-.02-.02Z"/>
          <path class="cls-1" d="M732.55,300.28c-.54-2.81-1.62-5.03-3.21-6.59s-3.86-2.61-6.77-3.12c-2.84-.49-6.63-.75-11.25-.75h-6.05c-3.75,0-6.82.06-9.14.19-2.33.13-4.17.38-5.46.76-1.37.4-2.27.93-2.75,1.63-.47.68-.7,1.56-.7,2.62v.56c0,1.29.38,2.26,1.13,2.88.73.61,1.68.92,2.83.92h19.11c2.51,0,4.57.08,6.13.23,1.51.15,2.66.45,3.44.88.74.42,1.22.97,1.46,1.69.25.76.38,1.79.38,3.03,0,.78-.19,1.3-.58,1.53-.31.19-.98.41-2.47.41h-15.45c-3.46,0-6.37.2-8.67.61-2.32.41-4.22,1.1-5.64,2.05-1.44.97-2.47,2.31-3.05,3.99-.57,1.64-.86,3.71-.86,6.15v2.41c0,2.55.23,4.69.69,6.36.47,1.71,1.38,3.1,2.72,4.14,1.32,1.02,3.16,1.75,5.46,2.16,2.27.4,5.23.61,8.79.61h20.39c3.82,0,6.53-.94,8.06-2.78,1.51-1.82,2.28-4.23,2.28-7.15v-14.55c0-4.45-.27-8.1-.8-10.87h-.02ZM696.86,324.19c-.25-.69-.38-1.65-.38-2.84v-.93c0-1.07.13-1.94.37-2.6.23-.63.68-1.1,1.38-1.47.73-.38,1.77-.65,3.09-.79,1.38-.15,3.21-.23,5.45-.23h6.29c2.16,0,3.87.05,5.07.14,1.15.09,2.02.3,2.58.64.53.32.85.75.99,1.3.15.62.23,1.48.23,2.55v1.67c0,1.2-.08,2.15-.23,2.84-.14.61-.47,1.06-1.02,1.38-.59.34-1.5.57-2.72.69-1.24.12-3.03.18-5.3.18h-5.58c-2.31,0-4.2-.08-5.61-.23-1.38-.15-2.46-.42-3.22-.8-.72-.36-1.17-.85-1.41-1.51h.02Z"/>
          <path class="cls-1" d="M754.3,272.97c-.71-.93-1.75-1.4-3.09-1.4h-3.58c-1.34,0-2.36.46-3.05,1.35-.66.87-.99,2.07-.99,3.56v53.85c0,1.5.35,2.72,1.03,3.61.71.93,1.75,1.4,3.09,1.4h3.58c1.34,0,2.36-.46,3.05-1.35.66-.87.99-2.07.99-3.56v-53.85c0-1.5-.35-2.71-1.03-3.61Z"/>
          <g>
            <path class="cls-1" d="M773.52,271.57h-3.5c-1.34,0-2.37.45-3.08,1.35-.69.87-1.04,2.07-1.04,3.57v2.22c0,4.06,2.24,4.92,4.12,4.92h3.5c1.34,0,2.38-.45,3.08-1.35.69-.87,1.04-2.07,1.04-3.57v-2.22c0-4.06-2.24-4.92-4.12-4.92Z"/>
            <path class="cls-1" d="M773.6,290.11h-3.66c-1.34,0-2.36.46-3.05,1.35-.66.87-.99,2.07-.99,3.56v35.31c0,1.5.35,2.72,1.03,3.61.71.93,1.75,1.4,3.09,1.4h3.66c1.34,0,2.36-.46,3.01-1.36.63-.87.95-2.06.95-3.56v-35.31c0-1.5-.33-2.71-.99-3.61-.68-.93-1.71-1.41-3.05-1.41v.02Z"/>
          </g>
          <path class="cls-1" d="M808.32,271.11h-1.59c-5.06,0-8.96,1.17-11.6,3.48-2.65,2.32-3.99,5.95-3.99,10.8v2.5c0,1.54-.6,2.22-1.93,2.22h-1.59c-1.06,0-1.96.36-2.69,1.08-.74.72-1.11,1.79-1.11,3.19v1.2c0,1.4.36,2.46,1.07,3.14.71.69,1.63,1.03,2.73,1.03h1.67c1.34,0,1.93.65,1.93,2.13v28.45c0,1.5.33,2.71.99,3.61.68.93,1.71,1.4,3.05,1.4h3.58c1.34,0,2.36-.46,3.01-1.36.63-.87.95-2.06.95-3.56v-28.55c0-1.45.69-2.13,2.17-2.13h5.73c1.15,0,2.12-.34,2.88-1.02.77-.69,1.16-1.75,1.16-3.15v-1.3c0-1.4-.38-2.46-1.12-3.15-.74-.68-1.72-1.03-2.92-1.03h-5.81c-1.54,0-2.25-.65-2.25-2.03v-2.6c0-1.63.36-2.87,1.06-3.69.69-.81,1.87-1.21,3.5-1.21h5.73c1.16,0,2.1-.33,2.81-.98.72-.66,1.08-1.61,1.08-2.83v-1.2c0-2.96-2.86-4.45-8.5-4.45h0Z"/>
          <path class="cls-1" d="M864.64,291.03c-.71-.62-1.62-.93-2.72-.93h-3.42c-1.32,0-2.32.33-2.97.99-.62.62-1.21,1.58-1.75,2.86l-11.63,28.45c-.49,1.21-.86,1.34-1,1.34-.16,0-.28-.06-.39-.19-.11-.12-.3-.44-.61-1.24l-11.87-28.45c-.49-1.28-1.06-2.23-1.68-2.82-.65-.62-1.57-.94-2.73-.94h-3.9c-1.1,0-2.02.31-2.75.92-.75.63-1.13,1.5-1.13,2.61,0,.47.07.95.21,1.45.14.48.29.91.46,1.3l14.97,34.2c.56,1.31,4.28,7.84,1.3,9.59-1.4.73-2.76,1.1-4.7,1.1h-3.98c-1.15,0-2.12.33-2.87.97-.77.66-1.17,1.71-1.17,3.11v1.11c0,1.54.49,2.71,1.45,3.49.96.77,2.56,1.15,4.9,1.15h2.87c2.2,0,4.15-.21,5.78-.61,1.67-.41,3.21-1.17,4.6-2.24,1.38-1.07,2.7-2.59,3.91-4.5,1.2-1.89,2.45-4.33,3.73-7.23l17.6-40.23c.39-.91.59-1.8.59-2.65,0-1.1-.37-1.97-1.08-2.6h-.02Z"/>
        </g>
      </g>
    </g>
  </g>
</svg>